<svg height="512" width="512" xmlns="http://www.w3.org/2000/svg"><path d="M372.603 194.707l-40.643-27.095C340.597 159.407 346 147.826 346 135c0-19.555-12.541-36.228-30-42.42V0H196v92.58c-17.459 6.192-30 22.865-30 42.42 0 12.826 5.403 24.407 14.041 32.612l-40.644 27.096C118.485 208.649 106 231.978 106 257.111V512h300V257.111c0-25.133-12.485-48.462-33.397-62.404zM286 30v60h-60V30zm-75 90h90c8.271 0 15 6.729 15 15s-6.729 15-15 15h-90c-8.271 0-15-6.729-15-15s6.729-15 15-15zm165 362H136V257.111a44.91 44.91 0 0120.038-37.442L215.542 180h80.917l59.504 39.668A44.915 44.915 0 01376 257.111z"/><path d="M166 452h180V242.111H166zm30-179.889h120V422H196z"/></svg>