<svg width="684" height="617" fill="none" xmlns="http://www.w3.org/2000/svg"><g opacity=".2"><path d="M346.282 180.923a4.029 4.029 0 111.475-5.503c1.099 1.905.451 4.391-1.475 5.503z" fill="url(#paint0_linear)"/><path d="M264.838 222.494l.667 1.156 77.051-44.485-.667-1.156-77.051 44.485z" fill="url(#paint1_linear)"/><path d="M342.77 393.956a4.028 4.028 0 11-4.028-6.978 4.028 4.028 0 014.028 6.978z" fill="url(#paint2_linear)"/><path d="M261.338 435.549l.668 1.156 77.072-44.498-.667-1.156-77.073 44.498z" fill="url(#paint3_linear)"/><path d="M235.74 397.934a4.03 4.03 0 01-4.029-6.978 4.029 4.029 0 014.029 6.978z" fill="url(#paint4_linear)"/><path d="M154.295 439.505l.668 1.156 77.051-44.486-.668-1.156-77.051 44.486z" fill="url(#paint5_linear)"/><path d="M233.323 352.87a4.029 4.029 0 111.474-5.503c1.122 1.893.474 4.378-1.474 5.503z" fill="url(#paint6_linear)"/><path d="M151.9 394.429l.667 1.156 77.073-44.498-.668-1.156-77.072 44.498z" fill="url(#paint7_linear)"/><path d="M399.466 181.152a4.029 4.029 0 11-4.028-6.978 4.029 4.029 0 014.028 6.978z" fill="url(#paint8_linear)"/><path d="M318.021 222.723l.667 1.156 77.051-44.485-.667-1.156-77.051 44.485z" fill="url(#paint9_linear)"/><path d="M143.877 256.716a4.03 4.03 0 01-5.503-1.474 4.03 4.03 0 016.978-4.029 4.029 4.029 0 01-1.475 5.503z" fill="url(#paint10_linear)"/><path d="M62.466 298.297l.668 1.155 77.051-44.485-.667-1.156-77.052 44.486z" fill="url(#paint11_linear)"/><path d="M196.047 354.986a4.03 4.03 0 111.475-5.503 4.03 4.03 0 01-1.475 5.503z" fill="url(#paint12_linear)"/><path d="M153.15 374.302l.667 1.156 38.526-22.243-.668-1.156-38.525 22.243z" fill="url(#paint13_linear)"/><path d="M313.774 111.568a4.029 4.029 0 111.474-5.503c1.1 1.905.452 4.391-1.474 5.503z" fill="url(#paint14_linear)"/><path d="M270.855 130.896l.667 1.156 38.526-22.243-.668-1.155-38.525 22.242z" fill="url(#paint15_linear)"/><path d="M187.92 515.292a4.03 4.03 0 01-5.503-1.474 4.03 4.03 0 016.978-4.029c1.1 1.905.452 4.391-1.475 5.503z" fill="url(#paint16_linear)"/><path d="M145.023 534.609l.667 1.155 38.526-22.242-.668-1.156-38.525 22.243z" fill="url(#paint17_linear)"/><path d="M225.516 430.148a4.029 4.029 0 11-4.028-6.979 4.029 4.029 0 014.028 6.979z" fill="url(#paint18_linear)"/><path d="M182.597 449.476l.667 1.156 38.526-22.243-.668-1.155-38.525 22.242z" fill="url(#paint19_linear)"/><path d="M107.015 348.172a4.029 4.029 0 111.474-5.503c1.122 1.893.452 4.391-1.474 5.503z" fill="url(#paint20_linear)"/><path d="M64.117 367.488l.667 1.156 38.526-22.243-.667-1.155-38.526 22.242z" fill="url(#paint21_linear)"/><path d="M416.984 233.934a4.028 4.028 0 11-4.029-6.977 4.028 4.028 0 014.029 6.977z" fill="url(#paint22_linear)"/><path d="M335.551 275.527l.668 1.156 77.072-44.498-.667-1.156-77.073 44.498z" fill="url(#paint23_linear)"/><path d="M345.819 432.748a4.03 4.03 0 11-4.028-6.98 4.03 4.03 0 014.028 6.98z" fill="url(#paint24_linear)"/><path d="M264.395 474.307l.668 1.156 77.051-44.486-.667-1.155-77.052 44.485z" fill="url(#paint25_linear)"/><path d="M318.115 157.147a4.03 4.03 0 01-5.503-1.474 4.03 4.03 0 016.978-4.029c1.133 1.914.473 4.379-1.475 5.503z" fill="url(#paint26_linear)"/><path d="M236.704 198.727l.668 1.156 77.072-44.498-.667-1.155-77.073 44.497z" fill="url(#paint27_linear)"/><path d="M359.691 519.797a4.029 4.029 0 11-4.028-6.979 4.029 4.029 0 014.028 6.979z" fill="url(#paint28_linear)"/><path d="M278.259 561.39l.667 1.156 77.073-44.498-.668-1.156-77.072 44.498z" fill="url(#paint29_linear)"/><path d="M609.34 213.199a4.03 4.03 0 01-4.029-6.978 4.029 4.029 0 015.503 1.475c1.134 1.914.452 4.39-1.474 5.503z" fill="url(#paint30_linear)"/><path d="M339.09 363.806l.667 1.155 265.89-153.512-.667-1.155-265.89 153.512z" fill="url(#paint31_linear)"/><path d="M640.873 300.439a4.03 4.03 0 01-4.028-6.978 4.029 4.029 0 015.503 1.475c1.133 1.914.473 4.378-1.475 5.503z" fill="url(#paint32_linear)"/><path d="M228.387 533.137l.667 1.156L637.19 298.656l-.667-1.156-408.136 235.637z" fill="url(#paint33_linear)"/><path d="M371.688 153.156a4.03 4.03 0 01-4.029-6.977 4.03 4.03 0 014.029 6.977z" fill="url(#paint34_linear)"/><path d="M101.437 303.763l.668 1.156 265.89-153.512-.667-1.156-265.891 153.512z" fill="url(#paint35_linear)"/><path d="M503.876 202.145a4.029 4.029 0 111.475-5.503c1.133 1.914.452 4.391-1.475 5.503z" fill="url(#paint36_linear)"/><path d="M233.635 352.718l.667 1.156 265.891-153.512-.668-1.156-265.89 153.512z" fill="url(#paint37_linear)"/><path d="M564.577 356.76a4.03 4.03 0 01-4.029-6.978 4.029 4.029 0 014.029 6.978z" fill="url(#paint38_linear)"/><path d="M294.327 507.367l.667 1.155 265.89-153.512-.667-1.155-265.89 153.512z" fill="url(#paint39_linear)"/><path d="M254.992 247.356a4.029 4.029 0 111.474-5.503c1.134 1.914.473 4.378-1.474 5.503z" fill="url(#paint40_linear)"/><path d="M103.516 329.36l.667 1.155 147.104-84.93-.667-1.156-147.104 84.931z" fill="url(#paint41_linear)"/><path d="M422.965 357.387a4.03 4.03 0 01-5.503-1.474 4.03 4.03 0 016.978-4.029 4.03 4.03 0 01-1.475 5.503z" fill="url(#paint42_linear)"/><path d="M271.49 439.391l.667 1.156 147.103-84.931-.667-1.155-147.103 84.93z" fill="url(#paint43_linear)"/></g><defs><linearGradient id="paint0_linear" x1="324.616" y1="188.76" x2="263.977" y2="223.77" gradientUnits="userSpaceOnUse"><stop stop-color="#A4FFFF"/><stop offset="1" stop-color="#A4FFFF" stop-opacity="0"/></linearGradient><linearGradient id="paint1_linear" x1="324.614" y1="188.758" x2="263.977" y2="223.767" gradientUnits="userSpaceOnUse"><stop stop-color="#A4FFFF"/><stop offset="1" stop-color="#A4FFFF" stop-opacity="0"/></linearGradient><linearGradient id="paint2_linear" x1="321.112" y1="401.81" x2="260.455" y2="436.83" gradientUnits="userSpaceOnUse"><stop stop-color="#A4FFFF"/><stop offset="1" stop-color="#A4FFFF" stop-opacity="0"/></linearGradient><linearGradient id="paint3_linear" x1="321.119" y1="401.806" x2="260.478" y2="436.817" gradientUnits="userSpaceOnUse"><stop stop-color="#A4FFFF"/><stop offset="1" stop-color="#A4FFFF" stop-opacity="0"/></linearGradient><linearGradient id="paint4_linear" x1="214.081" y1="405.768" x2="153.442" y2="440.778" gradientUnits="userSpaceOnUse"><stop stop-color="#A4FFFF"/><stop offset="1" stop-color="#A4FFFF" stop-opacity="0"/></linearGradient><linearGradient id="paint5_linear" x1="214.08" y1="405.769" x2="153.443" y2="440.778" gradientUnits="userSpaceOnUse"><stop stop-color="#A4FFFF"/><stop offset="1" stop-color="#A4FFFF" stop-opacity="0"/></linearGradient><linearGradient id="paint6_linear" x1="211.672" y1="360.697" x2="151.031" y2="395.708" gradientUnits="userSpaceOnUse"><stop stop-color="#A4FFFF"/><stop offset="1" stop-color="#A4FFFF" stop-opacity="0"/></linearGradient><linearGradient id="paint7_linear" x1="211.672" y1="360.696" x2="151.034" y2="395.706" gradientUnits="userSpaceOnUse"><stop stop-color="#A4FFFF"/><stop offset="1" stop-color="#A4FFFF" stop-opacity="0"/></linearGradient><linearGradient id="paint8_linear" x1="377.81" y1="188.987" x2="317.187" y2="223.987" gradientUnits="userSpaceOnUse"><stop stop-color="#A4FFFF"/><stop offset="1" stop-color="#A4FFFF" stop-opacity="0"/></linearGradient><linearGradient id="paint9_linear" x1="377.804" y1="188.989" x2="317.166" y2="223.998" gradientUnits="userSpaceOnUse"><stop stop-color="#A4FFFF"/><stop offset="1" stop-color="#A4FFFF" stop-opacity="0"/></linearGradient><linearGradient id="paint10_linear" x1="122.228" y1="264.563" x2="61.589" y2="299.572" gradientUnits="userSpaceOnUse"><stop stop-color="#A4FFFF"/><stop offset="1" stop-color="#A4FFFF" stop-opacity="0"/></linearGradient><linearGradient id="paint11_linear" x1="122.227" y1="264.564" x2="61.59" y2="299.573" gradientUnits="userSpaceOnUse"><stop stop-color="#A4FFFF"/><stop offset="1" stop-color="#A4FFFF" stop-opacity="0"/></linearGradient><linearGradient id="paint12_linear" x1="174.396" y1="362.821" x2="113.757" y2="397.831" gradientUnits="userSpaceOnUse"><stop stop-color="#A4FFFF"/><stop offset="1" stop-color="#A4FFFF" stop-opacity="0"/></linearGradient><linearGradient id="paint13_linear" x1="183.208" y1="357.732" x2="152.889" y2="375.237" gradientUnits="userSpaceOnUse"><stop stop-color="#A4FFFF"/><stop offset="1" stop-color="#A4FFFF" stop-opacity="0"/></linearGradient><linearGradient id="paint14_linear" x1="292.107" y1="119.404" x2="231.468" y2="154.414" gradientUnits="userSpaceOnUse"><stop stop-color="#A4FFFF"/><stop offset="1" stop-color="#A4FFFF" stop-opacity="0"/></linearGradient><linearGradient id="paint15_linear" x1="300.92" y1="114.316" x2="270.601" y2="131.821" gradientUnits="userSpaceOnUse"><stop stop-color="#A4FFFF"/><stop offset="1" stop-color="#A4FFFF" stop-opacity="0"/></linearGradient><linearGradient id="paint16_linear" x1="166.264" y1="523.121" x2="105.625" y2="558.131" gradientUnits="userSpaceOnUse"><stop stop-color="#A4FFFF"/><stop offset="1" stop-color="#A4FFFF" stop-opacity="0"/></linearGradient><linearGradient id="paint17_linear" x1="175.077" y1="518.034" x2="144.758" y2="535.538" gradientUnits="userSpaceOnUse"><stop stop-color="#A4FFFF"/><stop offset="1" stop-color="#A4FFFF" stop-opacity="0"/></linearGradient><linearGradient id="paint18_linear" x1="203.844" y1="437.989" x2="143.187" y2="473.01" gradientUnits="userSpaceOnUse"><stop stop-color="#A4FFFF"/><stop offset="1" stop-color="#A4FFFF" stop-opacity="0"/></linearGradient><linearGradient id="paint19_linear" x1="212.664" y1="432.897" x2="182.345" y2="450.402" gradientUnits="userSpaceOnUse"><stop stop-color="#A4FFFF"/><stop offset="1" stop-color="#A4FFFF" stop-opacity="0"/></linearGradient><linearGradient id="paint20_linear" x1="85.36" y1="356" x2="24.721" y2="391.01" gradientUnits="userSpaceOnUse"><stop stop-color="#A4FFFF"/><stop offset="1" stop-color="#A4FFFF" stop-opacity="0"/></linearGradient><linearGradient id="paint21_linear" x1="94.171" y1="350.911" x2="63.855" y2="368.414" gradientUnits="userSpaceOnUse"><stop stop-color="#A4FFFF"/><stop offset="1" stop-color="#A4FFFF" stop-opacity="0"/></linearGradient><linearGradient id="paint22_linear" x1="395.327" y1="241.774" x2="334.688" y2="276.784" gradientUnits="userSpaceOnUse"><stop stop-color="#A4FFFF"/><stop offset="1" stop-color="#A4FFFF" stop-opacity="0"/></linearGradient><linearGradient id="paint23_linear" x1="395.328" y1="241.775" x2="334.69" y2="276.784" gradientUnits="userSpaceOnUse"><stop stop-color="#A4FFFF"/><stop offset="1" stop-color="#A4FFFF" stop-opacity="0"/></linearGradient><linearGradient id="paint24_linear" x1="324.162" y1="440.585" x2="263.523" y2="475.595" gradientUnits="userSpaceOnUse"><stop stop-color="#A4FFFF"/><stop offset="1" stop-color="#A4FFFF" stop-opacity="0"/></linearGradient><linearGradient id="paint25_linear" x1="324.163" y1="440.585" x2="263.526" y2="475.594" gradientUnits="userSpaceOnUse"><stop stop-color="#A4FFFF"/><stop offset="1" stop-color="#A4FFFF" stop-opacity="0"/></linearGradient><linearGradient id="paint26_linear" x1="296.466" y1="164.988" x2="235.809" y2="200.008" gradientUnits="userSpaceOnUse"><stop stop-color="#A4FFFF"/><stop offset="1" stop-color="#A4FFFF" stop-opacity="0"/></linearGradient><linearGradient id="paint27_linear" x1="296.471" y1="164.983" x2="235.833" y2="199.992" gradientUnits="userSpaceOnUse"><stop stop-color="#A4FFFF"/><stop offset="1" stop-color="#A4FFFF" stop-opacity="0"/></linearGradient><linearGradient id="paint28_linear" x1="338.028" y1="527.643" x2="277.389" y2="562.653" gradientUnits="userSpaceOnUse"><stop stop-color="#A4FFFF"/><stop offset="1" stop-color="#A4FFFF" stop-opacity="0"/></linearGradient><linearGradient id="paint29_linear" x1="338.028" y1="527.642" x2="277.39" y2="562.652" gradientUnits="userSpaceOnUse"><stop stop-color="#A4FFFF"/><stop offset="1" stop-color="#A4FFFF" stop-opacity="0"/></linearGradient><linearGradient id="paint30_linear" x1="573.126" y1="229.445" x2="465.134" y2="291.795" gradientUnits="userSpaceOnUse"><stop stop-color="#A4FFFF"/><stop offset="1" stop-color="#A4FFFF" stop-opacity="0"/></linearGradient><linearGradient id="paint31_linear" x1="546.103" y1="245.045" x2="347.447" y2="359.74" gradientUnits="userSpaceOnUse"><stop stop-color="#A4FFFF"/><stop offset="1" stop-color="#A4FFFF" stop-opacity="0"/></linearGradient><linearGradient id="paint32_linear" x1="604.662" y1="316.678" x2="496.669" y2="379.027" gradientUnits="userSpaceOnUse"><stop stop-color="#A4FFFF"/><stop offset="1" stop-color="#A4FFFF" stop-opacity="0"/></linearGradient><linearGradient id="paint33_linear" x1="545.963" y1="350.566" x2="241.034" y2="526.617" gradientUnits="userSpaceOnUse"><stop stop-color="#A4FFFF"/><stop offset="1" stop-color="#A4FFFF" stop-opacity="0"/></linearGradient><linearGradient id="paint34_linear" x1="335.475" y1="169.414" x2="227.483" y2="231.764" gradientUnits="userSpaceOnUse"><stop stop-color="#A4FFFF"/><stop offset="1" stop-color="#A4FFFF" stop-opacity="0"/></linearGradient><linearGradient id="paint35_linear" x1="308.452" y1="185.014" x2="109.796" y2="299.708" gradientUnits="userSpaceOnUse"><stop stop-color="#A4FFFF"/><stop offset="1" stop-color="#A4FFFF" stop-opacity="0"/></linearGradient><linearGradient id="paint36_linear" x1="467.66" y1="218.386" x2="359.668" y2="280.736" gradientUnits="userSpaceOnUse"><stop stop-color="#A4FFFF"/><stop offset="1" stop-color="#A4FFFF" stop-opacity="0"/></linearGradient><linearGradient id="paint37_linear" x1="440.635" y1="233.988" x2="241.981" y2="348.681" gradientUnits="userSpaceOnUse"><stop stop-color="#A4FFFF"/><stop offset="1" stop-color="#A4FFFF" stop-opacity="0"/></linearGradient><linearGradient id="paint38_linear" x1="528.36" y1="373.009" x2="420.368" y2="435.359" gradientUnits="userSpaceOnUse"><stop stop-color="#A4FFFF"/><stop offset="1" stop-color="#A4FFFF" stop-opacity="0"/></linearGradient><linearGradient id="paint39_linear" x1="501.338" y1="388.611" x2="302.683" y2="503.304" gradientUnits="userSpaceOnUse"><stop stop-color="#A4FFFF"/><stop offset="1" stop-color="#A4FFFF" stop-opacity="0"/></linearGradient><linearGradient id="paint40_linear" x1="218.77" y1="263.604" x2="110.744" y2="325.973" gradientUnits="userSpaceOnUse"><stop stop-color="#A4FFFF"/><stop offset="1" stop-color="#A4FFFF" stop-opacity="0"/></linearGradient><linearGradient id="paint41_linear" x1="218.211" y1="263.927" x2="108.299" y2="327.384" gradientUnits="userSpaceOnUse"><stop stop-color="#A4FFFF"/><stop offset="1" stop-color="#A4FFFF" stop-opacity="0"/></linearGradient><linearGradient id="paint42_linear" x1="386.747" y1="373.631" x2="278.787" y2="435.962" gradientUnits="userSpaceOnUse"><stop stop-color="#A4FFFF"/><stop offset="1" stop-color="#A4FFFF" stop-opacity="0"/></linearGradient><linearGradient id="paint43_linear" x1="386.167" y1="373.966" x2="276.256" y2="437.423" gradientUnits="userSpaceOnUse"><stop stop-color="#A4FFFF"/><stop offset="1" stop-color="#A4FFFF" stop-opacity="0"/></linearGradient></defs></svg>